<svg xmlns="http://www.w3.org/2000/svg" xmlns:xlink="http://www.w3.org/1999/xlink" width="4320" zoomAndPan="magnify" viewBox="0 0 3240 3239.999982" height="4320" preserveAspectRatio="xMidYMid meet" version="1.0"><defs><clipPath id="e4dc50783e"><path d="M 43 97 L 929 97 L 929 1852 L 43 1852 Z M 43 97 " clip-rule="nonzero"/></clipPath><clipPath id="8100839daf"><path d="M 714.308594 54.792969 L 971.082031 160.484375 L 257.660156 1893.703125 L 0.886719 1788.011719 Z M 714.308594 54.792969 " clip-rule="nonzero"/></clipPath><clipPath id="ac26d32157"><path d="M 842.695312 107.636719 C 876.742188 121.652344 903.832031 148.621094 918 182.609375 C 932.164062 216.597656 932.25 254.820312 918.234375 288.871094 L 310.578125 1765.140625 C 296.5625 1799.191406 269.59375 1826.277344 235.605469 1840.445312 C 201.621094 1854.609375 163.394531 1854.695312 129.347656 1840.679688 C 95.296875 1826.664062 68.207031 1799.695312 54.042969 1765.710938 C 39.875 1731.722656 39.789062 1693.5 53.804688 1659.449219 L 661.460938 183.179688 C 675.476562 149.128906 702.445312 122.039062 736.433594 107.875 C 770.421875 93.707031 808.644531 93.621094 842.695312 107.636719 Z M 842.695312 107.636719 " clip-rule="nonzero"/></clipPath><clipPath id="2bf9228118"><path d="M 0 0 L 886 0 L 886 1755 L 0 1755 Z M 0 0 " clip-rule="nonzero"/></clipPath><clipPath id="0e5fd9e3ae"><path d="M 671.308594 -42.207031 L 928.082031 63.484375 L 214.660156 1796.703125 L -42.113281 1691.011719 Z M 671.308594 -42.207031 " clip-rule="nonzero"/></clipPath><clipPath id="abf6a08648"><path d="M 799.695312 10.636719 C 833.742188 24.652344 860.832031 51.621094 875 85.609375 C 889.164062 119.597656 889.25 157.820312 875.234375 191.871094 L 267.578125 1668.140625 C 253.5625 1702.191406 226.59375 1729.277344 192.605469 1743.445312 C 158.621094 1757.609375 120.394531 1757.695312 86.347656 1743.679688 C 52.296875 1729.664062 25.207031 1702.695312 11.042969 1668.710938 C -3.125 1634.722656 -3.210938 1596.5 10.804688 1562.449219 L 618.460938 86.179688 C 632.476562 52.128906 659.445312 25.039062 693.433594 10.875 C 727.421875 -3.292969 765.644531 -3.378906 799.695312 10.636719 Z M 799.695312 10.636719 " clip-rule="nonzero"/></clipPath><clipPath id="c8f15f16be"><rect x="0" width="886" y="0" height="1755"/></clipPath><clipPath id="9f50ad74d5"><path d="M 672 48 L 1255 48 L 1255 931 L 672 931 Z M 672 48 " clip-rule="nonzero"/></clipPath><clipPath id="665fcdd1c0"><path d="M 624.804688 125.203125 L 872.890625 0.472656 L 1301.648438 853.261719 L 1053.5625 977.992188 Z M 624.804688 125.203125 " clip-rule="nonzero"/></clipPath><clipPath id="2b8f8ff4c7"><path d="M 748.847656 62.835938 C 781.746094 46.296875 819.867188 43.503906 854.824219 55.070312 C 889.785156 66.636719 918.714844 91.617188 935.253906 124.515625 L 1239.28125 729.214844 C 1255.820312 762.109375 1258.613281 800.230469 1247.046875 835.191406 C 1235.480469 870.148438 1210.5 899.078125 1177.601562 915.621094 C 1144.703125 932.160156 1106.582031 934.953125 1071.625 923.386719 C 1036.667969 911.820312 1007.734375 886.839844 991.195312 853.941406 L 687.171875 249.246094 C 670.632812 216.347656 667.835938 178.226562 679.402344 143.265625 C 690.96875 108.308594 715.949219 79.378906 748.847656 62.835938 Z M 748.847656 62.835938 " clip-rule="nonzero"/></clipPath><clipPath id="328eb6595f"><path d="M 0 0 L 583 0 L 583 883 L 0 883 Z M 0 0 " clip-rule="nonzero"/></clipPath><clipPath id="cb6734a450"><path d="M -47.195312 77.203125 L 200.890625 -47.527344 L 629.648438 805.261719 L 381.5625 929.992188 Z M -47.195312 77.203125 " clip-rule="nonzero"/></clipPath><clipPath id="e38d2b69b6"><path d="M 76.847656 14.835938 C 109.746094 -1.703125 147.867188 -4.496094 182.824219 7.070312 C 217.785156 18.636719 246.714844 43.617188 263.253906 76.515625 L 567.28125 681.214844 C 583.820312 714.109375 586.613281 752.230469 575.046875 787.191406 C 563.480469 822.148438 538.5 851.078125 505.601562 867.621094 C 472.703125 884.160156 434.582031 886.953125 399.625 875.386719 C 364.667969 863.820312 335.734375 838.839844 319.195312 805.941406 L 15.171875 201.246094 C -1.367188 168.347656 -4.164062 130.226562 7.402344 95.265625 C 18.96875 60.308594 43.949219 31.378906 76.847656 14.835938 Z M 76.847656 14.835938 " clip-rule="nonzero"/></clipPath><clipPath id="bd22bd278a"><rect x="0" width="583" y="0" height="883"/></clipPath><clipPath id="5544a30a0d"><path d="M 1008 50 L 1631 50 L 1631 946 L 1008 946 Z M 1008 50 " clip-rule="nonzero"/></clipPath><clipPath id="f9e4b09e5f"><path d="M 1437.710938 0.476562 L 1680.261719 135.652344 L 1200.8125 995.949219 L 958.261719 860.773438 Z M 1437.710938 0.476562 " clip-rule="nonzero"/></clipPath><clipPath id="fa2f395b03"><path d="M 1558.988281 68.0625 C 1591.152344 85.988281 1614.878906 115.957031 1624.945312 151.375 C 1635.015625 186.796875 1630.601562 224.761719 1612.675781 256.925781 L 1268.574219 874.359375 C 1250.648438 906.523438 1220.679688 930.25 1185.261719 940.316406 C 1149.84375 950.386719 1111.875 945.972656 1079.710938 928.046875 C 1047.546875 910.121094 1023.820312 880.152344 1013.753906 844.734375 C 1003.683594 809.316406 1008.097656 771.347656 1026.023438 739.183594 L 1370.125 121.75 C 1388.050781 89.585938 1418.019531 65.859375 1453.4375 55.792969 C 1488.855469 45.722656 1526.824219 50.136719 1558.988281 68.0625 Z M 1558.988281 68.0625 " clip-rule="nonzero"/></clipPath><clipPath id="117a4edc64"><path d="M 0 0 L 623 0 L 623 896 L 0 896 Z M 0 0 " clip-rule="nonzero"/></clipPath><clipPath id="29c5009ded"><path d="M 429.710938 -49.523438 L 672.261719 85.652344 L 192.8125 945.949219 L -49.738281 810.773438 Z M 429.710938 -49.523438 " clip-rule="nonzero"/></clipPath><clipPath id="997d5e9a04"><path d="M 550.988281 18.0625 C 583.152344 35.988281 606.878906 65.957031 616.945312 101.375 C 627.015625 136.796875 622.601562 174.761719 604.675781 206.925781 L 260.574219 824.359375 C 242.648438 856.523438 212.679688 880.25 177.261719 890.316406 C 141.84375 900.386719 103.875 895.972656 71.710938 878.046875 C 39.546875 860.121094 15.820312 830.152344 5.753906 794.734375 C -4.316406 759.316406 0.0976562 721.347656 18.023438 689.183594 L 362.125 71.75 C 380.050781 39.585938 410.019531 15.859375 445.4375 5.792969 C 480.855469 -4.277344 518.824219 0.136719 550.988281 18.0625 Z M 550.988281 18.0625 " clip-rule="nonzero"/></clipPath><clipPath id="af50daee8c"><rect x="0" width="623" y="0" height="896"/></clipPath><clipPath id="77cf55f248"><path d="M 1362.570312 54.789062 L 1640.246094 54.789062 L 1640.246094 968 L 1362.570312 968 Z M 1362.570312 54.789062 " clip-rule="nonzero"/></clipPath><clipPath id="8a80e5d026"><path d="M 1501.410156 54.789062 C 1538.230469 54.789062 1573.542969 69.417969 1599.582031 95.457031 C 1625.617188 121.492188 1640.246094 156.804688 1640.246094 193.628906 L 1640.246094 828.351562 C 1640.246094 865.175781 1625.617188 900.488281 1599.582031 926.523438 C 1573.542969 952.5625 1538.230469 967.1875 1501.410156 967.1875 C 1464.585938 967.1875 1429.273438 952.5625 1403.234375 926.523438 C 1377.199219 900.488281 1362.570312 865.175781 1362.570312 828.351562 L 1362.570312 193.628906 C 1362.570312 156.804688 1377.199219 121.492188 1403.234375 95.457031 C 1429.273438 69.417969 1464.585938 54.789062 1501.410156 54.789062 Z M 1501.410156 54.789062 " clip-rule="nonzero"/></clipPath><clipPath id="22c2361102"><path d="M 0.570312 0.789062 L 278.246094 0.789062 L 278.246094 913 L 0.570312 913 Z M 0.570312 0.789062 " clip-rule="nonzero"/></clipPath><clipPath id="46e19419c7"><path d="M 139.410156 0.789062 C 176.230469 0.789062 211.542969 15.417969 237.582031 41.457031 C 263.617188 67.492188 278.246094 102.804688 278.246094 139.628906 L 278.246094 774.351562 C 278.246094 811.175781 263.617188 846.488281 237.582031 872.523438 C 211.542969 898.5625 176.230469 913.1875 139.410156 913.1875 C 102.585938 913.1875 67.273438 898.5625 41.234375 872.523438 C 15.199219 846.488281 0.570312 811.175781 0.570312 774.351562 L 0.570312 139.628906 C 0.570312 102.804688 15.199219 67.492188 41.234375 41.457031 C 67.273438 15.417969 102.585938 0.789062 139.410156 0.789062 Z M 139.410156 0.789062 " clip-rule="nonzero"/></clipPath><clipPath id="7915c0d2c0"><rect x="0" width="279" y="0" height="914"/></clipPath><clipPath id="851420d0f0"><path d="M 402.699219 1026.414062 L 1056 1026.414062 L 1056 1272.199219 L 402.699219 1272.199219 Z M 402.699219 1026.414062 " clip-rule="nonzero"/></clipPath><clipPath id="f1de283606"><path d="M 973.78125 1026.414062 L 402.699219 1026.414062 L 484.625 1272.199219 L 1055.710938 1272.199219 Z M 973.78125 1026.414062 " clip-rule="nonzero"/></clipPath><clipPath id="b4d031174c"><path d="M 0.699219 0.414062 L 653.761719 0.414062 L 653.761719 246.199219 L 0.699219 246.199219 Z M 0.699219 0.414062 " clip-rule="nonzero"/></clipPath><clipPath id="11bc659729"><path d="M 571.78125 0.414062 L 0.699219 0.414062 L 82.625 246.199219 L 653.710938 246.199219 Z M 571.78125 0.414062 " clip-rule="nonzero"/></clipPath><clipPath id="29ac32f123"><rect x="0" width="654" y="0" height="247"/></clipPath><clipPath id="a583268bd1"><path d="M 574.210938 1026.414062 L 884.804688 1026.414062 L 884.804688 1258.90625 L 574.210938 1258.90625 Z M 574.210938 1026.414062 " clip-rule="nonzero"/></clipPath><clipPath id="496b2303e1"><path d="M 806.703125 1026.414062 L 574.210938 1026.414062 L 651.707031 1258.90625 L 884.199219 1258.90625 Z M 806.703125 1026.414062 " clip-rule="nonzero"/></clipPath><clipPath id="e912b600da"><path d="M 0.210938 0.414062 L 310 0.414062 L 310 232.90625 L 0.210938 232.90625 Z M 0.210938 0.414062 " clip-rule="nonzero"/></clipPath><clipPath id="0f02cd13d8"><path d="M 232.703125 0.414062 L 0.210938 0.414062 L 77.707031 232.90625 L 310.199219 232.90625 Z M 232.703125 0.414062 " clip-rule="nonzero"/></clipPath><clipPath id="342c7d8a68"><rect x="0" width="311" y="0" height="233"/></clipPath><clipPath id="edc86e5b07"><path d="M 369 1130 L 546 1130 L 546 1299 L 369 1299 Z M 369 1130 " clip-rule="nonzero"/></clipPath><clipPath id="2c0587b614"><path d="M 418.804688 1102.085938 L 574.242188 1191.414062 L 495.929688 1327.683594 L 340.492188 1238.359375 Z M 418.804688 1102.085938 " clip-rule="nonzero"/></clipPath><clipPath id="da519f1766"><path d="M 486.941406 1141.242188 L 506.074219 1152.238281 C 524.144531 1162.625 537.351562 1179.761719 542.785156 1199.882812 C 548.21875 1220.003906 545.4375 1241.460938 535.054688 1259.53125 C 524.667969 1277.601562 507.53125 1290.804688 487.410156 1296.242188 C 467.289062 1301.675781 445.832031 1298.894531 427.761719 1288.511719 L 408.628906 1277.515625 C 390.558594 1267.128906 377.351562 1249.992188 371.917969 1229.871094 C 366.484375 1209.75 369.265625 1188.292969 379.648438 1170.222656 C 390.035156 1152.152344 407.171875 1138.945312 427.292969 1133.511719 C 447.414062 1128.078125 468.871094 1130.859375 486.941406 1141.242188 Z M 486.941406 1141.242188 " clip-rule="nonzero"/></clipPath><clipPath id="885e2d1da7"><path d="M 0 0 L 177 0 L 177 169 L 0 169 Z M 0 0 " clip-rule="nonzero"/></clipPath><clipPath id="7c0b4c026b"><path d="M 49.804688 -27.914062 L 205.242188 61.414062 L 126.929688 197.683594 L -28.507812 108.359375 Z M 49.804688 -27.914062 " clip-rule="nonzero"/></clipPath><clipPath id="30afbbd88f"><path d="M 117.941406 11.242188 L 137.074219 22.238281 C 155.144531 32.625 168.351562 49.761719 173.785156 69.882812 C 179.21875 90.003906 176.4375 111.460938 166.054688 129.53125 C 155.667969 147.601562 138.53125 160.804688 118.410156 166.242188 C 98.289062 171.675781 76.832031 168.894531 58.761719 158.511719 L 39.628906 147.515625 C 21.558594 137.128906 8.351562 119.992188 2.917969 99.871094 C -2.515625 79.75 0.265625 58.292969 10.648438 40.222656 C 21.035156 22.152344 38.171875 8.945312 58.292969 3.511719 C 78.414062 -1.921875 99.871094 0.859375 117.941406 11.242188 Z M 117.941406 11.242188 " clip-rule="nonzero"/></clipPath><clipPath id="13e823e591"><rect x="0" width="177" y="0" height="169"/></clipPath><clipPath id="cd7a4f6a1e"><path d="M 454 966 L 632 966 L 632 1136 L 454 1136 Z M 454 966 " clip-rule="nonzero"/></clipPath><clipPath id="a6ba127095"><path d="M 504.511719 938.203125 L 659.949219 1027.527344 L 581.636719 1163.800781 L 426.199219 1074.476562 Z M 504.511719 938.203125 " clip-rule="nonzero"/></clipPath><clipPath id="05ec72db48"><path d="M 572.648438 977.359375 L 591.78125 988.355469 C 609.851562 998.738281 623.058594 1015.878906 628.492188 1036 C 633.925781 1056.121094 631.144531 1077.578125 620.761719 1095.648438 C 610.375 1113.71875 593.238281 1126.921875 573.117188 1132.359375 C 552.996094 1137.792969 531.539062 1135.011719 513.46875 1124.625 L 494.335938 1113.632812 C 476.265625 1103.246094 463.0625 1086.109375 457.625 1065.988281 C 452.191406 1045.867188 454.972656 1024.410156 465.355469 1006.339844 C 475.742188 988.269531 492.878906 975.0625 513 969.628906 C 533.121094 964.195312 554.578125 966.976562 572.648438 977.359375 Z M 572.648438 977.359375 " clip-rule="nonzero"/></clipPath><clipPath id="ce2466486e"><path d="M 0 0 L 178 0 L 178 170 L 0 170 Z M 0 0 " clip-rule="nonzero"/></clipPath><clipPath id="6c4f30510b"><path d="M 50.511719 -27.796875 L 205.949219 61.527344 L 127.636719 197.800781 L -27.800781 108.476562 Z M 50.511719 -27.796875 " clip-rule="nonzero"/></clipPath><clipPath id="d4e2b1216f"><path d="M 118.648438 11.359375 L 137.78125 22.355469 C 155.851562 32.738281 169.058594 49.878906 174.492188 70 C 179.925781 90.121094 177.144531 111.578125 166.761719 129.648438 C 156.375 147.71875 139.238281 160.921875 119.117188 166.359375 C 98.996094 171.792969 77.539062 169.011719 59.46875 158.625 L 40.335938 147.632812 C 22.265625 137.246094 9.0625 120.109375 3.625 99.988281 C -1.808594 79.867188 0.972656 58.410156 11.355469 40.339844 C 21.742188 22.269531 38.878906 9.0625 59 3.628906 C 79.121094 -1.804688 100.578125 0.976562 118.648438 11.359375 Z M 118.648438 11.359375 " clip-rule="nonzero"/></clipPath><clipPath id="a2ecbcc6ff"><rect x="0" width="178" y="0" height="170"/></clipPath><clipPath id="f70dd87d4c"><path d="M 1115 614 L 2499 614 L 2499 1716.792969 L 1115 1716.792969 Z M 1115 614 " clip-rule="nonzero"/></clipPath><clipPath id="0b559e8f98"><rect x="0" width="2515" y="0" height="1894"/></clipPath></defs><g transform="matrix(1, 0, 0, 1, 402, 673)"><g clip-path="url(#0b559e8f98)"><g clip-path="url(#e4dc50783e)"><g clip-path="url(#8100839daf)"><g clip-path="url(#ac26d32157)"><g transform="matrix(1, 0, 0, 1, 43, 97)"><g clip-path="url(#c8f15f16be)"><g clip-path="url(#2bf9228118)"><g clip-path="url(#0e5fd9e3ae)"><g clip-path="url(#abf6a08648)"><path fill="#311B92" d="M 671.308594 -42.207031 L 928.082031 63.484375 L 214.660156 1796.703125 L -42.113281 1691.011719 Z M 671.308594 -42.207031 " fill-opacity="1" fill-rule="nonzero"/></g></g></g></g></g></g></g></g><g clip-path="url(#9f50ad74d5)"><g clip-path="url(#665fcdd1c0)"><g clip-path="url(#2b8f8ff4c7)"><g transform="matrix(1, 0, 0, 1, 672, 48)"><g clip-path="url(#bd22bd278a)"><g clip-path="url(#328eb6595f)"><g clip-path="url(#cb6734a450)"><g clip-path="url(#e38d2b69b6)"><path fill="#311B92" d="M -47.195312 77.203125 L 200.890625 -47.527344 L 629.648438 805.261719 L 381.5625 929.992188 Z M -47.195312 77.203125 " fill-opacity="1" fill-rule="nonzero"/></g></g></g></g></g></g></g></g><g clip-path="url(#5544a30a0d)"><g clip-path="url(#f9e4b09e5f)"><g clip-path="url(#fa2f395b03)"><g transform="matrix(1, 0, 0, 1, 1008, 50)"><g clip-path="url(#af50daee8c)"><g clip-path="url(#117a4edc64)"><g clip-path="url(#29c5009ded)"><g clip-path="url(#997d5e9a04)"><path fill="#311B92" d="M 429.710938 -49.523438 L 672.261719 85.652344 L 192.8125 945.949219 L -49.738281 810.773438 Z M 429.710938 -49.523438 " fill-opacity="1" fill-rule="nonzero"/></g></g></g></g></g></g></g></g><g clip-path="url(#77cf55f248)"><g clip-path="url(#8a80e5d026)"><g transform="matrix(1, 0, 0, 1, 1362, 54)"><g clip-path="url(#7915c0d2c0)"><g clip-path="url(#22c2361102)"><g clip-path="url(#46e19419c7)"><path fill="#311B92" d="M 0.570312 0.789062 L 278.246094 0.789062 L 278.246094 912.996094 L 0.570312 912.996094 Z M 0.570312 0.789062 " fill-opacity="1" fill-rule="nonzero"/></g></g></g></g></g></g><g clip-path="url(#851420d0f0)"><g clip-path="url(#f1de283606)"><g transform="matrix(1, 0, 0, 1, 402, 1026)"><g clip-path="url(#29ac32f123)"><g clip-path="url(#b4d031174c)"><g clip-path="url(#11bc659729)"><path fill="#311B92" d="M 0.699219 0.414062 L 653.558594 0.414062 L 653.558594 246.199219 L 0.699219 246.199219 Z M 0.699219 0.414062 " fill-opacity="1" fill-rule="nonzero"/></g></g></g></g></g></g><g clip-path="url(#a583268bd1)"><g clip-path="url(#496b2303e1)"><g transform="matrix(1, 0, 0, 1, 574, 1026)"><g clip-path="url(#342c7d8a68)"><g clip-path="url(#e912b600da)"><g clip-path="url(#0f02cd13d8)"><path fill="#311B92" d="M 0.210938 0.414062 L 309.894531 0.414062 L 309.894531 232.90625 L 0.210938 232.90625 Z M 0.210938 0.414062 " fill-opacity="1" fill-rule="nonzero"/></g></g></g></g></g></g><g clip-path="url(#edc86e5b07)"><g clip-path="url(#2c0587b614)"><g clip-path="url(#da519f1766)"><g transform="matrix(1, 0, 0, 1, 369, 1130)"><g clip-path="url(#13e823e591)"><g clip-path="url(#885e2d1da7)"><g clip-path="url(#7c0b4c026b)"><g clip-path="url(#30afbbd88f)"><path fill="#311B92" d="M 49.804688 -27.914062 L 205.242188 61.414062 L 126.929688 197.683594 L -28.507812 108.359375 Z M 49.804688 -27.914062 " fill-opacity="1" fill-rule="nonzero"/></g></g></g></g></g></g></g></g><g clip-path="url(#cd7a4f6a1e)"><g clip-path="url(#a6ba127095)"><g clip-path="url(#05ec72db48)"><g transform="matrix(1, 0, 0, 1, 454, 966)"><g clip-path="url(#a2ecbcc6ff)"><g clip-path="url(#ce2466486e)"><g clip-path="url(#6c4f30510b)"><g clip-path="url(#d4e2b1216f)"><path fill="#311B92" d="M 50.511719 -27.796875 L 205.949219 61.527344 L 127.636719 197.800781 L -27.800781 108.476562 Z M 50.511719 -27.796875 " fill-opacity="1" fill-rule="nonzero"/></g></g></g></g></g></g></g></g><g clip-path="url(#f70dd87d4c)"><path fill="#311B92" d="M 2451.9375 650.675781 L 2443.203125 644.125 C 2414.816406 621.199219 2379.875 611.375 2347.121094 614.652344 C 2312.183594 617.925781 2280.519531 633.207031 2257.589844 660.5 L 1962.792969 1007.640625 L 1788.097656 1218.328125 L 1660.351562 1372.25 L 1573.003906 1279.460938 L 1523.871094 1228.15625 L 1351.359375 1048.03125 C 1326.246094 1021.832031 1293.492188 1008.734375 1258.554688 1006.550781 C 1225.796875 1004.367188 1190.859375 1018.558594 1165.746094 1042.574219 L 1157.011719 1051.308594 C 1103.511719 1100.433594 1102.421875 1185.582031 1151.554688 1237.980469 L 1321.878906 1417.007812 L 1371.011719 1470.5 L 1567.546875 1676.820312 C 1590.472656 1699.746094 1621.046875 1715.027344 1650.523438 1716.121094 C 1652.707031 1716.121094 1652.707031 1716.121094 1653.800781 1716.121094 C 1655.984375 1716.121094 1657.078125 1716.121094 1660.351562 1716.121094 C 1660.351562 1716.121094 1660.351562 1716.121094 1662.535156 1716.121094 C 1667.996094 1716.121094 1672.363281 1716.121094 1678.914062 1716.121094 C 1713.851562 1712.84375 1745.515625 1697.5625 1768.445312 1670.269531 L 2061.058594 1323.128906 L 2175.703125 1184.488281 L 2468.316406 837.347656 C 2514.171875 781.671875 2507.621094 698.707031 2451.9375 650.675781 Z M 2451.9375 650.675781 " fill-opacity="1" fill-rule="nonzero"/></g></g></g></svg>